<?xml version="1.0" encoding="utf-8"?>
<!-- Generator: Adobe Illustrator 18.1.1, SVG Export Plug-In . SVG Version: 6.00 Build 0)  -->
<svg version="1.1" id="Layer_1" xmlns="http://www.w3.org/2000/svg" xmlns:xlink="http://www.w3.org/1999/xlink" x="0px" y="0px"
	 viewBox="0 0 306.3 169" enable-background="new 0 0 306.3 169" xml:space="preserve">
<g>
	<g>
		<path fill="#FFFFFF" d="M294.5,111.9c-4.5-17.7-24.1-36.5-52.4-29.4c-1.1-16.2-7.9-28.7-21.8-36.6c-13.9-7.8-28-6.8-42,0.3
			c-1-2-1.7-3.6-2.5-5.1c-13.9-27.3-42.2-41.7-73.4-37.3C75.1,7.6,51,30.9,45.8,58.9c-0.9,4.7-2.6,7.2-6.8,9.5
			c-20.4,10.9-30.5,34.7-24.8,57.1c5.8,22.8,25.5,38.5,48.7,38.6c64,0.1,128.1,0.1,192.1,0C281.9,164.1,301.3,138.1,294.5,111.9z"/>
		<path opacity="0.44" fill="#E7E7E7" d="M70.4,18.8c0.2-0.6-19.9,13.8-24.4,40.1c-0.8,4.7-2.6,7.2-6.8,9.5
			c-20.4,10.9-30.5,34.8-24.8,57.3c5.8,22.9,25.5,38.6,48.7,38.6c37.5,0,146.2,0,148-0.3c0,0-59.6-6.5-72.7-46.8
			C138.4,117.2,34.9,107.9,70.4,18.8z"/>
	</g>
	<g>
		<path fill="#595A5C" d="M252.6,141H140.5v-23.3h112.1c1.6,0,2.8,1.3,2.8,2.8v17.6C255.4,139.8,254.1,141,252.6,141z"/>
		<path fill="#7EC354" d="M90.6,141H53.1c-2.4,0-4.4-2-4.4-4.4v-14.5c0-2.4,2-4.4,4.4-4.4h37.4V141z"/>
		<rect x="129.8" y="117.7" fill="#FBB640" width="10.6" height="23.3"/>
		<rect x="90.5" y="117.7" fill="#01A79D" width="39.7" height="23.3"/>
	</g>
</g>
</svg>
