<?xml version="1.0" encoding="utf-8"?>
<!-- Generator: Adobe Illustrator 18.1.1, SVG Export Plug-In . SVG Version: 6.00 Build 0)  -->
<svg version="1.1" id="Layer_1" xmlns="http://www.w3.org/2000/svg" xmlns:xlink="http://www.w3.org/1999/xlink" x="0px" y="0px"
	 viewBox="0 0 1440 579" enable-background="new 0 0 1440 579" xml:space="preserve">
<linearGradient id="SVGID_1_" gradientUnits="userSpaceOnUse" x1="34.6801" y1="398.1674" x2="34.6801" y2="140.9895">
	<stop  offset="0" style="stop-color:#FFFFFF;stop-opacity:0"/>
	<stop  offset="1" style="stop-color:#FFFFFF;stop-opacity:0.6"/>
</linearGradient>
<path opacity="0.62" fill="url(#SVGID_1_)" d="M235.6,282.6c-0.4,35.6-27.7,64.6-70.7,73.9c-9.9,2.1-17.1,5.1-22.7,12.9
	c-22.6,31.2-68.3,38.3-102.2,15.3c-9.8-6.7-14.9-5.6-24.4-0.3c-38.3,21.5-85.6,9.9-103.4-25.6c-4.8-9.6-9.9-12.6-22.4-12.4
	c-27.2,0.6-47.2-13-54-34.5c-6.3-20.1,3.1-40.6,26.2-50.9c11.9-5.3,14-11.2,13.8-21.5c-1-38.9,41.5-65.9,87.2-55.8
	c10.4,2.3,16.5,3.1,23.1-6.6c18.3-27.1,47.6-39.5,84.8-35.5c37.2,4,61.6,22.1,70.8,52.3c3,9.9,11,10.5,19.6,12.3
	C207.5,215.9,235.9,245,235.6,282.6z"/>
<linearGradient id="SVGID_2_" gradientUnits="userSpaceOnUse" x1="417.0092" y1="348.8129" x2="417.0092" y2="177.2706">
	<stop  offset="0" style="stop-color:#FFFFFF;stop-opacity:0"/>
	<stop  offset="1" style="stop-color:#FFFFFF;stop-opacity:0.6"/>
</linearGradient>
<path opacity="0.62" fill="url(#SVGID_2_)" d="M551,271.7c-0.2,23.8-18.5,43.1-47.2,49.3c-6.6,1.4-11.4,3.4-15.2,8.6
	c-15.1,20.8-45.5,25.5-68.2,10.2c-6.5-4.4-10-3.7-16.3-0.2c-25.6,14.4-57.1,6.6-69-17.1c-3.2-6.4-6.6-8.4-14.9-8.2
	c-18.2,0.4-31.5-8.7-36-23c-4.2-13.4,2-27.1,17.5-33.9c7.9-3.5,9.4-7.4,9.2-14.3c-0.7-26,27.7-44,58.1-37.2c6.9,1.5,11,2.1,15.4-4.4
	c12.2-18,31.7-26.4,56.5-23.7c24.8,2.7,41.1,14.7,47.2,34.9c2,6.6,7.3,7,13.1,8.2C532.3,227.2,551.3,246.7,551,271.7z"/>
</svg>
