<?xml version="1.0" encoding="utf-8"?>
<!-- Generator: Adobe Illustrator 18.1.1, SVG Export Plug-In . SVG Version: 6.00 Build 0)  -->
<svg version="1.1" id="Layer_1" xmlns="http://www.w3.org/2000/svg" xmlns:xlink="http://www.w3.org/1999/xlink" x="0px" y="0px"
	 viewBox="0 0 283.6 42.1" enable-background="new 0 0 283.6 42.1" xml:space="preserve">
<g>
	<g>
		<g>
			<g>
				<g>
					<g>
						<g>
							<polygon fill="#FFFFFF" points="41.7,25.1 41.7,29.8 46.4,29.8 							"/>
						</g>
						<g>
							<path fill="#FFFFFF" d="M55,29.8l-6-6c3.2-0.2,5.8-2.8,5.8-6c0-3.3-2.7-6-6-6h-7v3h7c1.7,0,3,1.3,3,3c0,1.7-1.3,3-3,3h-7l9,9
								H55z"/>
						</g>
					</g>
				</g>
				<g>
					<g>
						<g>
							<polygon fill="#FFFFFF" points="8.8,16.6 8.8,11.8 13.5,11.8 							"/>
						</g>
						<g>
							<path fill="#FFFFFF" d="M22,11.8l-6,6c3.2,0.2,5.8,2.8,5.8,6c0,3.3-2.7,6-6,6h-7v-3h7c1.7,0,3-1.3,3-3s-1.3-3-3-3h-7l8.9-9
								H22z"/>
						</g>
					</g>
				</g>
				<path fill="#FFFFFF" d="M29.7,11.8h-4.8v3h4.8c3.3,0,6,2.7,6,6s-2.7,6-6,6h-1.7v-6h-3v9h4.8c5,0,9-4,9-9
					C38.7,15.8,34.6,11.8,29.7,11.8z"/>
			</g>
			<rect x="65.2" y="9.2" opacity="0.29" fill="#FFFFFF" enable-background="new    " width="1.1" height="24.5"/>
		</g>
	</g>
	<text transform="matrix(1 0 0 1 74.911 29.8184)"><tspan x="0" y="0" fill="#FFFFFF" font-family="'Copenhagen-Light'" font-size="26.081">DRONEKIT </tspan><tspan x="122" y="0" fill="#58A9DD" font-family="'Copenhagen-Light'" font-size="26.081">CLOUD</tspan></text>
</g>
</svg>
